<?xml version="1.0" encoding="UTF-8" standalone="no"?>
<!-- Generator: Adobe Illustrator 15.0.0, SVG Export Plug-In . SVG Version: 6.00 Build 0)  -->

<svg
   xmlns:dc="http://purl.org/dc/elements/1.1/"
   xmlns:cc="http://creativecommons.org/ns#"
   xmlns:rdf="http://www.w3.org/1999/02/22-rdf-syntax-ns#"
   xmlns:svg="http://www.w3.org/2000/svg"
   xmlns="http://www.w3.org/2000/svg"
   xmlns:sodipodi="http://sodipodi.sourceforge.net/DTD/sodipodi-0.dtd"
   xmlns:inkscape="http://www.inkscape.org/namespaces/inkscape"
   version="1.1"
   id="レイヤー_1"
   x="0px"
   y="0px"
   width="1500"
   height="559.46997"
   viewBox="0 0 1499.9999 559.46999"
   enable-background="new 0 0 401.98 559.472"
   xml:space="preserve"
   inkscape:version="0.48.2 r9819"
   sodipodi:docname="gopher.svg"><metadata
   id="metadata3321"><rdf:RDF><cc:Work
       rdf:about=""><dc:format>image/svg+xml</dc:format><dc:type
         rdf:resource="http://purl.org/dc/dcmitype/StillImage" /><dc:title></dc:title></cc:Work></rdf:RDF></metadata><defs
   id="defs3319" /><sodipodi:namedview
   pagecolor="#ffffff"
   bordercolor="#666666"
   borderopacity="1"
   objecttolerance="10"
   gridtolerance="10"
   guidetolerance="10"
   inkscape:pageopacity="0"
   inkscape:pageshadow="2"
   inkscape:window-width="1207"
   inkscape:window-height="644"
   id="namedview3317"
   showgrid="false"
   inkscape:zoom="0.52451119"
   inkscape:cx="632.39009"
   inkscape:cy="279.73599"
   inkscape:window-x="0"
   inkscape:window-y="0"
   inkscape:window-maximized="0"
   inkscape:current-layer="レイヤー_1" />
<path
   clip-rule="evenodd"
   d="m 1078.2948,296.67798 c 0.764,15.751 16.499,8.463 23.626,3.539 6.765,-4.675 8.743,-0.789 9.337,-10.015 0.389,-6.064 1.088,-12.128 0.744,-18.216 -10.23,-0.927 -21.357,1.509 -29.744,7.602 -4.32,3.139 -12.42,13.158 -3.963,17.09"
   id="path3263"
   inkscape:connector-curvature="0"
   style="fill:#f6d2a2;fill-rule:evenodd;stroke:#000000;stroke-width:3;stroke-linecap:round" />
<path
   clip-rule="evenodd"
   d="m 1078.2948,296.67798 c 2.29,-0.852 4.717,-1.457 6.271,-3.528"
   id="path3265"
   inkscape:connector-curvature="0"
   style="fill:#c6b198;fill-rule:evenodd;stroke:#000000;stroke-width:3;stroke-linecap:round" />
<path
   clip-rule="evenodd"
   d="m 1114.6578,109.03798 c -60.297,-16.95601 -15.461,-93.66401 32.959,-62.11301 l -32.959,62.11301 z"
   id="path3267"
   inkscape:connector-curvature="0"
   style="fill:#6ad7e5;fill-rule:evenodd;stroke:#000000;stroke-width:3;stroke-linecap:round" />
<path
   clip-rule="evenodd"
   d="m 1382.5558,41.16897 c 47.727,-33.5230002 90.856,42.111 35.388,61.14101 l -35.388,-61.14101 z"
   id="path3269"
   inkscape:connector-curvature="0"
   style="fill:#6ad7e5;fill-rule:evenodd;stroke:#000000;stroke-width:3;stroke-linecap:round" />
<path
   clip-rule="evenodd"
   d="m 1392.8218,490.52798 c 12.123,7.501 34.282,30.182 16.096,41.18 -17.474,15.999 -27.254,-17.561 -42.591,-22.211 6.605,-8.97 14.977,-17.149 26.495,-18.969 z"
   id="path3271"
   inkscape:connector-curvature="0"
   style="fill:#f6d2a2;fill-rule:evenodd;stroke:#000000;stroke-width:3;stroke-linecap:round" />
<path
   clip-rule="evenodd"
   d="m 1408.9178,531.70698 c -2.696,-5.361 -3.601,-11.618 -8.102,-15.939"
   id="path3273"
   inkscape:connector-curvature="0"
   style="fill:none;stroke:#000000;stroke-width:3;stroke-linecap:round" />
<path
   clip-rule="evenodd"
   d="m 1176.2398,516.15998 c -14.229,2.202 -22.238,15.039 -34.1,21.558 -11.178,6.665 -15.454,-2.134 -16.461,-3.92 -1.752,-0.799 -1.605,0.744 -4.309,-1.979 -10.362,-16.354 10.797,-28.308 21.815,-36.432 15.346,-3.102 24.963,10.202 33.055,20.773 z"
   id="path3275"
   inkscape:connector-curvature="0"
   style="fill:#f6d2a2;fill-rule:evenodd;stroke:#000000;stroke-width:3;stroke-linecap:round" />
<path
   clip-rule="evenodd"
   d="m 1125.6798,533.79698 c 0.542,-6.233 5.484,-10.407 7.838,-15.677"
   id="path3277"
   inkscape:connector-curvature="0"
   style="fill:none;stroke:#000000;stroke-width:3;stroke-linecap:round" />
<path
   clip-rule="evenodd"
   d="m 1117.1738,87.85197 c -7.955,-4.208 -13.791,-9.923 -8.925,-19.124 4.505,-8.518 12.874,-7.593 20.83,-3.385 l -11.905,22.509 z"
   id="path3279"
   inkscape:connector-curvature="0"
   style="fill-rule:evenodd" />
<path
   clip-rule="evenodd"
   d="m 1405.3768,79.85197 c 7.955,-4.208 13.791,-9.923 8.925,-19.124 -4.505,-8.518 -12.874,-7.593 -20.83,-3.385 l 11.905,22.509 z"
   id="path3281"
   inkscape:connector-curvature="0"
   style="fill-rule:evenodd" />
<path
   clip-rule="evenodd"
   d="m 1460.1358,294.67798 c -0.764,15.751 -16.499,8.463 -23.626,3.539 -6.765,-4.675 -8.743,-0.789 -9.337,-10.015 -0.389,-6.064 -1.088,-12.128 -0.744,-18.216 10.23,-0.927 21.357,1.509 29.744,7.602 4.319,3.139 12.42,13.158 3.963,17.09"
   id="path3283"
   inkscape:connector-curvature="0"
   style="fill:#f6d2a2;fill-rule:evenodd;stroke:#000000;stroke-width:3;stroke-linecap:round" />
<path
   clip-rule="evenodd"
   d="m 1460.1358,294.67798 c -2.29,-0.852 -4.717,-1.457 -6.271,-3.528"
   id="path3285"
   inkscape:connector-curvature="0"
   style="fill:#c6b198;fill-rule:evenodd;stroke:#000000;stroke-width:3;stroke-linecap:round" />
<g
   id="g3287"
   transform="translate(1067.6608,-3.8150298)">
	<path
   clip-rule="evenodd"
   d="m 195.512,13.124 c 60.365,0 116.953,8.633 146.452,66.629 26.478,65.006 17.062,135.104 21.1,203.806 3.468,58.992 11.157,127.145 -16.21,181.812 -28.79,57.514 -100.73,71.982 -160,69.863 C 140.299,533.568 84.06,518.38 57.785,475.845 26.959,425.945 41.553,351.747 43.792,296.223 46.444,230.452 25.977,164.481 47.584,100.122 69.999,33.359 130.451,18.271 195.512,13.124"
   id="path3289"
   inkscape:connector-curvature="0"
   style="fill:#6ad7e5;fill-rule:evenodd;stroke:#000000;stroke-width:3;stroke-linecap:round" />
</g>
<path
   clip-rule="evenodd"
   d="m 1273.8298,90.34497 c 10.838,63.00301 113.822,46.34501 99.03,-17.197 -13.264,-56.98 -102.632,-41.208 -99.03,17.197"
   id="path3291"
   inkscape:connector-curvature="0"
   style="fill:#ffffff;fill-rule:evenodd;stroke:#000000;stroke-width:2.90809989;stroke-linecap:round" />
<path
   clip-rule="evenodd"
   d="m 1150.7638,100.53498 c 14.047,54.85 101.864,40.807 98.554,-14.21301 -3.966,-65.895 -111.984,-53.18 -98.554,14.21301"
   id="path3293"
   inkscape:connector-curvature="0"
   style="fill:#ffffff;fill-rule:evenodd;stroke:#000000;stroke-width:2.82139993;stroke-linecap:round" />
<path
   clip-rule="evenodd"
   d="m 1286.2548,165.94698 c 0.046,8.191 1.861,17.387 0.312,26.101 -2.091,3.952 -6.193,4.37 -9.729,5.967 -4.89,-0.767 -9.002,-3.978 -10.963,-8.552 -1.255,-9.946 0.468,-19.576 0.785,-29.526 l 19.595,6.01 z"
   id="path3295"
   inkscape:connector-curvature="0"
   style="fill:#ffffff;fill-rule:evenodd;stroke:#000000;stroke-width:3;stroke-linecap:round" />
<g
   id="g3297"
   transform="translate(1067.6608,-3.8150298)">
	<ellipse
   clip-rule="evenodd"
   cx="107.324"
   cy="95.403999"
   rx="14.829"
   ry="16.062"
   id="ellipse3299"
   sodipodi:cx="107.324"
   sodipodi:cy="95.403999"
   sodipodi:rx="14.829"
   sodipodi:ry="16.062"
   style="fill-rule:evenodd"
   d="m 122.153,95.403999 c 0,8.870801 -6.63917,16.062001 -14.829,16.062001 -8.189833,0 -14.829003,-7.1912 -14.829003,-16.062001 0,-8.870797 6.63917,-16.062 14.829003,-16.062 8.18983,0 14.829,7.191203 14.829,16.062 z" />
	<ellipse
   clip-rule="evenodd"
   cx="114.069"
   cy="99.028999"
   rx="3.4960001"
   ry="4.0819998"
   id="ellipse3301"
   sodipodi:cx="114.069"
   sodipodi:cy="99.028999"
   sodipodi:rx="3.4960001"
   sodipodi:ry="4.0819998"
   style="fill:#ffffff;fill-rule:evenodd"
   d="m 117.565,99.028999 c 0,2.254431 -1.56521,4.082001 -3.496,4.082001 -1.93079,0 -3.496,-1.82757 -3.496,-4.082001 0,-2.254426 1.56521,-4.081999 3.496,-4.081999 1.93079,0 3.496,1.827573 3.496,4.081999 z" />
</g>
<g
   id="g3303"
   transform="translate(1067.6608,-3.8150298)">
	<ellipse
   clip-rule="evenodd"
   cx="231.571"
   cy="91.403999"
   rx="14.582"
   ry="16.062"
   id="ellipse3305"
   sodipodi:cx="231.571"
   sodipodi:cy="91.403999"
   sodipodi:rx="14.582"
   sodipodi:ry="16.062"
   style="fill-rule:evenodd"
   d="m 246.153,91.403999 c 0,8.870801 -6.52858,16.062001 -14.582,16.062001 -8.05342,0 -14.582,-7.1912 -14.582,-16.062001 0,-8.870797 6.52858,-16.062 14.582,-16.062 8.05342,0 14.582,7.191203 14.582,16.062 z" />
	<ellipse
   clip-rule="evenodd"
   cx="238.20399"
   cy="95.028999"
   rx="3.438"
   ry="4.0819998"
   id="ellipse3307"
   sodipodi:cx="238.20399"
   sodipodi:cy="95.028999"
   sodipodi:rx="3.438"
   sodipodi:ry="4.0819998"
   style="fill:#ffffff;fill-rule:evenodd"
   d="m 241.64199,95.028999 c 0,2.254427 -1.53924,4.082 -3.438,4.082 -1.89875,0 -3.438,-1.827573 -3.438,-4.082 0,-2.254426 1.53925,-4.081999 3.438,-4.081999 1.89876,0 3.438,1.827573 3.438,4.081999 z" />
</g>
<path
   clip-rule="evenodd"
   d="m 1243.8778,165.05498 c -6.47,15.68 3.608,47.035 21.163,23.908 -1.255,-9.946 0.468,-19.576 0.785,-29.526 l -21.948,5.618 z"
   id="path3309"
   inkscape:connector-curvature="0"
   style="fill:#ffffff;fill-rule:evenodd;stroke:#000000;stroke-width:3;stroke-linecap:round" />
<g
   id="g3311"
   transform="translate(1067.6608,-3.8150298)">
	<path
   clip-rule="evenodd"
   d="m 178.431,138.673 c -12.059,1.028 -21.916,15.366 -15.646,26.709 8.303,15.024 26.836,-1.329 38.379,0.203 13.285,0.272 24.17,14.047 34.84,2.49 11.867,-12.854 -5.109,-25.373 -18.377,-30.97 l -39.196,1.568 z"
   id="path3313"
   inkscape:connector-curvature="0"
   style="fill:#f6d2a2;fill-rule:evenodd;stroke:#231f20;stroke-width:3;stroke-linecap:round" />
	<path
   clip-rule="evenodd"
   d="m 176.913,138.045 c -0.893,-20.891 38.938,-23.503 43.642,-6.016 4.692,17.446 -41.681,21.498 -43.642,6.016 -1.565,-12.363 0,0 0,0 z"
   id="path3315"
   inkscape:connector-curvature="0"
   style="fill-rule:evenodd" />
</g>
</svg>